<!-- filepath: /Users/sarbagya/Desktop/pariwartan-delivery-admin/public/images/ward-settlement-diversity.svg -->
<svg width="1200" height="400" viewBox="0 0 1200 400" xmlns="http://www.w3.org/2000/svg">
  <defs>
    <!-- Gradients for sky and terrain -->
    <linearGradient id="skyGradient" x1="0%" y1="0%" x2="0%" y2="100%">
      <stop offset="0%" style="stop-color:#87CEEB;stop-opacity:1" />
      <stop offset="100%" style="stop-color:#E0F6FF;stop-opacity:1" />
    </linearGradient>
    
    <linearGradient id="hillGradient" x1="0%" y1="0%" x2="0%" y2="100%">
      <stop offset="0%" style="stop-color:#228B22;stop-opacity:1" />
      <stop offset="100%" style="stop-color:#32CD32;stop-opacity:1" />
    </linearGradient>
    
    <linearGradient id="riverGradient" x1="0%" y1="0%" x2="100%" y2="0%">
      <stop offset="0%" style="stop-color:#4682B4;stop-opacity:0.8" />
      <stop offset="50%" style="stop-color:#87CEEB;stop-opacity:0.6" />
      <stop offset="100%" style="stop-color:#4682B4;stop-opacity:0.8" />
    </linearGradient>
    
    <!-- Patterns for different settlement types -->
    <pattern id="farmPattern" patternUnits="userSpaceOnUse" width="20" height="20">
      <rect width="20" height="20" fill="#90EE90" opacity="0.3"/>
      <circle cx="10" cy="10" r="2" fill="#228B22"/>
    </pattern>
    
    <pattern id="marketPattern" patternUnits="userSpaceOnUse" width="15" height="15">
      <rect width="15" height="15" fill="#FFD700" opacity="0.3"/>
      <rect x="5" y="5" width="5" height="5" fill="#FF8C00"/>
    </pattern>
  </defs>
  
  <!-- Sky background -->
  <rect width="1200" height="400" fill="url(#skyGradient)"/>
  
  <!-- Mountain ranges in background -->
  <polygon points="0,200 200,150 400,180 600,160 800,170 1000,140 1200,160 1200,400 0,400" 
           fill="#696969" opacity="0.4"/>
  <polygon points="0,250 150,200 350,220 550,200 750,210 950,180 1200,200 1200,400 0,400" 
           fill="url(#hillGradient)" opacity="0.6"/>
  
  <!-- River flowing through the landscape -->
  <path d="M0,320 Q200,300 400,310 T800,305 Q1000,300 1200,315" 
        stroke="url(#riverGradient)" stroke-width="25" fill="none" opacity="0.7"/>
  <path d="M0,325 Q200,305 400,315 T800,310 Q1000,305 1200,320" 
        stroke="#B0E0E6" stroke-width="15" fill="none" opacity="0.5"/>
  
  <!-- Ward 1 - Traditional settlements -->
  <g id="ward1" transform="translate(50, 250)">
    <!-- Ward indicator -->
    <circle cx="75" cy="-15" r="12" fill="#FF6B6B" opacity="0.9"/>
    
    <!-- Traditional houses -->
    <g id="traditionalHouses">
      <!-- House 1 -->
      <polygon points="10,40 30,20 50,40" fill="#8B4513"/>
      <rect x="15" y="40" width="30" height="25" fill="#D2B48C"/>
      <rect x="20" y="45" width="8" height="15" fill="#654321"/>
      <rect x="35" y="45" width="6" height="6" fill="#87CEEB"/>
      
      <!-- House 2 -->
      <polygon points="60,35 80,15 100,35" fill="#8B4513"/>
      <rect x="65" y="35" width="30" height="30" fill="#DEB887"/>
      <rect x="70" y="40" width="8" height="20" fill="#654321"/>
      <rect x="85" y="40" width="6" height="6" fill="#87CEEB"/>
      
      <!-- House 3 -->
      <polygon points="110,45 125,25 140,45" fill="#A0522D"/>
      <rect x="115" y="45" width="25" height="20" fill="#F5DEB3"/>
      <rect x="120" y="50" width="6" height="12" fill="#654321"/>
      <rect x="130" y="50" width="5" height="5" fill="#87CEEB"/>
    </g>
    
    <!-- Settlement indicators -->
    <circle cx="25" cy="75" r="3" fill="#32CD32"/>
    <circle cx="75" cy="75" r="3" fill="#32CD32"/>
    <circle cx="125" cy="75" r="3" fill="#32CD32"/>
  </g>
  
  <!-- Ward 2 - Mixed settlements -->
  <g id="ward2" transform="translate(250, 260)">
    <circle cx="50" cy="-15" r="12" fill="#4ECDC4" opacity="0.9"/>
    
    <!-- Mixed architecture -->
    <rect x="10" y="30" width="20" height="25" fill="#CD853F"/>
    <polygon points="10,30 20,20 30,30" fill="#8B4513"/>
    <rect x="15" y="35" width="6" height="15" fill="#654321"/>
    
    <rect x="40" y="25" width="25" height="30" fill="#DEB887"/>
    <polygon points="40,25 52.5,15 65,25" fill="#A0522D"/>
    <rect x="45" y="30" width="8" height="20" fill="#654321"/>
    <rect x="55" y="30" width="6" height="6" fill="#87CEEB"/>
    
    <rect x="75" y="35" width="18" height="20" fill="#F5DEB3"/>
    <polygon points="75,35 84,25 93,35" fill="#8B4513"/>
    
    <circle cx="25" cy="65" r="3" fill="#FFD700"/>
    <circle cx="52" cy="65" r="3" fill="#FFD700"/>
    <circle cx="84" cy="65" r="3" fill="#FFD700"/>
  </g>
  
  <!-- Ward 3 - Market area -->
  <g id="ward3" transform="translate(450, 240)">
    <circle cx="60" cy="-15" r="12" fill="#45B7D1" opacity="0.9"/>
    
    <!-- Market structures -->
    <rect x="10" y="20" width="40" height="35" fill="url(#marketPattern)"/>
    <rect x="10" y="20" width="40" height="35" fill="#FFD700" opacity="0.3"/>
    <polygon points="10,20 30,5 50,20" fill="#FF8C00"/>
    
    <rect x="60" y="30" width="20" height="25" fill="#DEB887"/>
    <polygon points="60,30 70,20 80,30" fill="#8B4513"/>
    
    <rect x="90" y="25" width="22" height="30" fill="#F5DEB3"/>
    <polygon points="90,25 101,15 112,25" fill="#A0522D"/>
    
    <circle cx="30" cy="65" r="3" fill="#FF6347"/>
    <circle cx="70" cy="65" r="3" fill="#FF6347"/>
    <circle cx="101" cy="65" r="3" fill="#FF6347"/>
  </g>
  
  <!-- Ward 4 - Largest settlement diversity -->
  <g id="ward4" transform="translate(650, 230)">
    <circle cx="60" cy="-15" r="12" fill="#F39C12" opacity="0.9"/>
    
    <!-- Dense settlement area -->
    <rect x="5" y="15" width="15" height="20" fill="#CD853F"/>
    <polygon points="5,15 12.5,8 20,15" fill="#8B4513"/>
    
    <rect x="25" y="10" width="18" height="25" fill="#DEB887"/>
    <polygon points="25,10 34,2 43,10" fill="#A0522D"/>
    
    <rect x="48" y="20" width="20" height="25" fill="#F5DEB3"/>
    <polygon points="48,20 58,10 68,20" fill="#8B4513"/>
    
    <rect x="75" y="15" width="16" height="22" fill="#DEB887"/>
    <polygon points="75,15 83,8 91,15" fill="#A0522D"/>
    
    <rect x="95" y="25" width="18" height="20" fill="#CD853F"/>
    <polygon points="95,25 104,18 113,25" fill="#8B4513"/>
    
    <!-- More settlement indicators -->
    <circle cx="12" cy="50" r="2" fill="#32CD32"/>
    <circle cx="34" cy="50" r="2" fill="#32CD32"/>
    <circle cx="58" cy="50" r="2" fill="#32CD32"/>
    <circle cx="83" cy="50" r="2" fill="#32CD32"/>
    <circle cx="104" cy="50" r="2" fill="#32CD32"/>
  </g>
  
  <!-- Ward 5 - Riverside settlements -->
  <g id="ward5" transform="translate(850, 255)">
    <circle cx="55" cy="-15" r="12" fill="#9B59B6" opacity="0.9"/>
    
    <!-- Riverside houses -->
    <rect x="10" y="25" width="22" height="28" fill="#DEB887"/>
    <polygon points="10,25 21,15 32,25" fill="#A0522D"/>
    <rect x="15" y="30" width="8" height="18" fill="#654321"/>
    <rect x="25" y="30" width="5" height="5" fill="#87CEEB"/>
    
    <rect x="40" y="30" width="20" height="25" fill="#F5DEB3"/>
    <polygon points="40,30 50,20 60,30" fill="#8B4513"/>
    <rect x="45" y="35" width="6" height="15" fill="#654321"/>
    
    <rect x="70" y="20" width="25" height="30" fill="#CD853F"/>
    <polygon points="70,20 82.5,10 95,20" fill="#8B4513"/>
    <rect x="75" y="25" width="8" height="20" fill="#654321"/>
    <rect x="85" y="25" width="6" height="6" fill="#87CEEB"/>
    
    <!-- Water elements -->
    <ellipse cx="50" cy="65" rx="15" ry="3" fill="#4682B4" opacity="0.6"/>
    
    <circle cx="21" cy="65" r="3" fill="#00CED1"/>
    <circle cx="50" cy="65" r="3" fill="#00CED1"/>
    <circle cx="82" cy="65" r="3" fill="#00CED1"/>
  </g>
  
  <!-- Ward 6 - Highland settlements -->
  <g id="ward6" transform="translate(1050, 245)">
    <circle cx="45" cy="-15" r="12" fill="#E74C3C" opacity="0.9"/>
    
    <!-- Highland houses -->
    <rect x="10" y="25" width="18" height="25" fill="#CD853F"/>
    <polygon points="10,25 19,15 28,25" fill="#8B4513"/>
    <rect x="15" y="30" width="6" height="15" fill="#654321"/>
    
    <rect x="35" y="20" width="20" height="28" fill="#DEB887"/>
    <polygon points="35,20 45,12 55,20" fill="#A0522D"/>
    <rect x="40" y="25" width="7" height="18" fill="#654321"/>
    <rect x="48" y="25" width="5" height="5" fill="#87CEEB"/>
    
    <rect x="65" y="30" width="16" height="22" fill="#F5DEB3"/>
    <polygon points="65,30 73,22 81,30" fill="#8B4513"/>
    <rect x="70" y="35" width="6" height="12" fill="#654321"/>
    
    <!-- Farm patterns -->
    <rect x="10" y="55" width="70" height="8" fill="url(#farmPattern)"/>
    
    <circle cx="19" cy="65" r="3" fill="#228B22"/>
    <circle cx="45" cy="65" r="3" fill="#228B22"/>
    <circle cx="73" cy="65" r="3" fill="#228B22"/>
  </g>
  
  <!-- Connecting paths between settlements -->
  <path d="M150,320 Q300,310 450,315" stroke="#8B4513" stroke-width="2" fill="none" opacity="0.5" stroke-dasharray="5,5"/>
  <path d="M450,315 Q600,305 750,320" stroke="#8B4513" stroke-width="2" fill="none" opacity="0.5" stroke-dasharray="5,5"/>
  <path d="M750,320 Q900,315 1050,318" stroke="#8B4513" stroke-width="2" fill="none" opacity="0.5" stroke-dasharray="5,5"/>
  
  <!-- Trees and vegetation scattered throughout -->
  <g id="vegetation">
    <!-- Trees -->
    <circle cx="180" cy="330" r="8" fill="#228B22"/>
    <rect x="177" y="330" width="6" height="15" fill="#8B4513"/>
    
    <circle cx="320" cy="325" r="10" fill="#32CD32"/>
    <rect x="316" y="325" width="8" height="18" fill="#8B4513"/>
    
    <circle cx="580" cy="335" r="7" fill="#228B22"/>
    <rect x="577" y="335" width="6" height="12" fill="#8B4513"/>
    
    <circle cx="780" cy="330" r="9" fill="#32CD32"/>
    <rect x="776" y="330" width="8" height="16" fill="#8B4513"/>
    
    <circle cx="980" cy="340" r="6" fill="#228B22"/>
    <rect x="977" y="340" width="6" height="10" fill="#8B4513"/>
    
    <circle cx="1120" cy="335" r="7" fill="#228B22"/>
    <rect x="1117" y="335" width="6" height="12" fill="#8B4513"/>
  </g>
  
  <!-- Abstract settlement indicators across the landscape -->
  <g id="abstractIndicators">
    <!-- Scattered dots representing settlements -->
    <circle cx="120" cy="280" r="2" fill="#4ECDC4" opacity="0.7"/>
    <circle cx="280" cy="290" r="2" fill="#FF6347" opacity="0.7"/>
    <circle cx="520" cy="275" r="2" fill="#32CD32" opacity="0.7"/>
    <circle cx="720" cy="285" r="2" fill="#FFD700" opacity="0.7"/>
    <circle cx="920" cy="295" r="2" fill="#9B59B6" opacity="0.7"/>
    <circle cx="1080" cy="280" r="2" fill="#228B22" opacity="0.7"/>
    
    <!-- Additional scattered points -->
    <circle cx="200" cy="305" r="1.5" fill="#FF6B6B" opacity="0.6"/>
    <circle cx="380" cy="295" r="1.5" fill="#45B7D1" opacity="0.6"/>
    <circle cx="600" cy="310" r="1.5" fill="#F39C12" opacity="0.6"/>
    <circle cx="800" cy="290" r="1.5" fill="#E74C3C" opacity="0.6"/>
    <circle cx="1000" cy="305" r="1.5" fill="#10B981" opacity="0.6"/>
  </g>
</svg>